RedHatDisplay-Black.ufo
<glyph name="numbersign" format="2">
  <advance width="757"/>
  <unicode hex="0023"/>
  <outline>
    <contour>
      <point x="67" y="0" type="line"/>
      <point x="212" y="0" type="line"/>
      <point x="265" y="184" type="line"/>
      <point x="398" y="184" type="line"/>
      <point x="345" y="0" type="line"/>
      <point x="489" y="0" type="line"/>
      <point x="542" y="184" type="line"/>
      <point x="678" y="184" type="line"/>
      <point x="678" y="298" type="line"/>
      <point x="574" y="298" type="line"/>
      <point x="604" y="402" type="line"/>
      <point x="728" y="402" type="line"/>
      <point x="728" y="516" type="line"/>
      <point x="636" y="516" type="line"/>
      <point x="689" y="700" type="line"/>
      <point x="545" y="700" type="line"/>
      <point x="492" y="516" type="line"/>
      <point x="359" y="516" type="line"/>
      <point x="412" y="700" type="line"/>
      <point x="267" y="700" type="line"/>
      <point x="214" y="516" type="line"/>
      <point x="79" y="516" type="line"/>
      <point x="79" y="402" type="line"/>
      <point x="182" y="402" type="line"/>
      <point x="152" y="298" type="line"/>
      <point x="29" y="298" type="line"/>
      <point x="29" y="184" type="line"/>
      <point x="120" y="184" type="line"/>
    </contour>
    <contour>
      <point x="297" y="298" type="line"/>
      <point x="327" y="402" type="line"/>
      <point x="460" y="402" type="line"/>
      <point x="430" y="298" type="line"/>
    </contour>
  </outline>
</glyph>
<glyph name="plus" format="2">
  <advance width="560"/>
  <unicode hex="002B"/>
  <outline>
    <contour>
      <point x="343" y="123" type="line"/>
      <point x="343" y="297" type="line"/>
      <point x="517" y="297" type="line"/>
      <point x="517" y="421" type="line"/>
      <point x="343" y="421" type="line"/>
      <point x="343" y="591" type="line"/>
      <point x="218" y="591" type="line"/>
      <point x="218" y="421" type="line"/>
      <point x="43" y="421" type="line"/>
      <point x="43" y="297" type="line"/>
      <point x="218" y="297" type="line"/>
      <point x="218" y="123" type="line"/>
    </contour>
  </outline>
</glyph>
<glyph name="zero" format="2">
  <advance width="694"/>
  <unicode hex="0030"/>
  <outline>
    <contour>
      <point x="347" y="-10" type="curve" smooth="yes"/>
      <point x="538" y="-10"/>
      <point x="664" y="133"/>
      <point x="664" y="351" type="curve"/>
      <point x="664" y="567"/>
      <point x="537" y="711"/>
      <point x="347" y="711" type="curve" smooth="yes"/>
      <point x="157" y="711"/>
      <point x="30" y="567"/>
      <point x="30" y="351" type="curve"/>
      <point x="30" y="133"/>
      <point x="156" y="-10"/>
    </contour>
    <contour>
      <point x="347" y="130" type="curve" smooth="yes"/>
      <point x="248" y="130"/>
      <point x="188" y="213"/>
      <point x="188" y="351" type="curve"/>
      <point x="188" y="487"/>
      <point x="249" y="571"/>
      <point x="347" y="571" type="curve" smooth="yes"/>
      <point x="445" y="571"/>
      <point x="506" y="487"/>
      <point x="506" y="351" type="curve"/>
      <point x="506" y="213"/>
      <point x="446" y="130"/>
    </contour>
  </outline>
</glyph>
<glyph name="three" format="2">
  <advance width="629"/>
  <unicode hex="0033"/>
  <outline>
    <contour>
      <point x="592" y="197" type="curve"/>
      <point x="592" y="267"/>
      <point x="547" y="322"/>
      <point x="475" y="350" type="curve"/>
      <point x="536" y="385"/>
      <point x="573" y="443"/>
      <point x="573" y="512" type="curve"/>
      <point x="573" y="630"/>
      <point x="463" y="711"/>
      <point x="304" y="711" type="curve"/>
      <point x="197" y="711"/>
      <point x="90" y="665"/>
      <point x="21" y="589" type="curve"/>
      <point x="131" y="490" type="line"/>
      <point x="190" y="550"/>
      <point x="231" y="570"/>
      <point x="298" y="570" type="curve"/>
      <point x="363" y="570"/>
      <point x="410" y="538"/>
      <point x="410" y="493" type="curve"/>
      <point x="410" y="442"/>
      <point x="363" y="406"/>
      <point x="296" y="406" type="curve" smooth="yes"/>
      <point x="247" y="406" type="line"/>
      <point x="247" y="277" type="line"/>
      <point x="313" y="277" type="line" smooth="yes"/>
      <point x="385" y="277"/>
      <point x="428" y="252"/>
      <point x="428" y="210" type="curve"/>
      <point x="428" y="161"/>
      <point x="377" y="129"/>
      <point x="299" y="129" type="curve"/>
      <point x="222" y="129"/>
      <point x="179" y="147"/>
      <point x="125" y="203" type="curve"/>
      <point x="16" y="103" type="line"/>
      <point x="81" y="32"/>
      <point x="187" y="-10"/>
      <point x="301" y="-10" type="curve"/>
      <point x="470" y="-10"/>
      <point x="592" y="77"/>
    </contour>
  </outline>
</glyph>
<glyph name="five" format="2">
  <advance width="617"/>
  <unicode hex="0035"/>
  <note>
Version created Sun Jan 27 17:40:50 2019
</note>
  <outline>
    <contour>
      <point x="62" y="324" type="line"/>
      <point x="170" y="292" type="line"/>
      <point x="206" y="309"/>
      <point x="249" y="319"/>
      <point x="288" y="319" type="curve" smooth="yes"/>
      <point x="366" y="319"/>
      <point x="421" y="280"/>
      <point x="421" y="223" type="curve" smooth="yes"/>
      <point x="421" y="164"/>
      <point x="372" y="125"/>
      <point x="296" y="125" type="curve" smooth="yes"/>
      <point x="231" y="125"/>
      <point x="182" y="144"/>
      <point x="122" y="193" type="curve"/>
      <point x="25" y="83" type="line"/>
      <point x="96" y="22"/>
      <point x="189" y="-11"/>
      <point x="291" y="-11" type="curve" smooth="yes"/>
      <point x="467" y="-11"/>
      <point x="587" y="87"/>
      <point x="587" y="231" type="curve" smooth="yes"/>
      <point x="587" y="361"/>
      <point x="484" y="447"/>
      <point x="329" y="447" type="curve" smooth="yes"/>
      <point x="284" y="447"/>
      <point x="244" y="441"/>
      <point x="204" y="428" type="curve"/>
      <point x="210" y="565" type="line"/>
      <point x="547" y="565" type="line"/>
      <point x="547" y="700" type="line"/>
      <point x="79" y="700" type="line"/>
    </contour>
  </outline>
</glyph>
<glyph name="six" format="2">
  <advance width="645"/>
  <unicode hex="0036"/>
  <outline>
    <contour>
      <point x="348" y="-11" type="curve"/>
      <point x="503" y="-11"/>
      <point x="617" y="88"/>
      <point x="617" y="221" type="curve" smooth="yes"/>
      <point x="617" y="347"/>
      <point x="516" y="435"/>
      <point x="372" y="435" type="curve"/>
      <point x="300" y="435"/>
      <point x="235" y="408"/>
      <point x="190" y="361" type="curve"/>
      <point x="198" y="498"/>
      <point x="259" y="570"/>
      <point x="368" y="570" type="curve" smooth="yes"/>
      <point x="426" y="570"/>
      <point x="468" y="555"/>
      <point x="509" y="521" type="curve"/>
      <point x="603" y="635" type="line"/>
      <point x="551" y="681"/>
      <point x="463" y="712"/>
      <point x="381" y="712" type="curve" smooth="yes"/>
      <point x="169" y="712"/>
      <point x="28" y="563"/>
      <point x="28" y="340" type="curve" smooth="yes"/>
      <point x="28" y="130"/>
      <point x="157" y="-11"/>
    </contour>
    <contour>
      <point x="346" y="309" type="curve"/>
      <point x="413" y="309"/>
      <point x="458" y="272"/>
      <point x="458" y="218" type="curve" smooth="yes"/>
      <point x="458" y="165"/>
      <point x="408" y="125"/>
      <point x="340" y="125" type="curve"/>
      <point x="274" y="125"/>
      <point x="223" y="171"/>
      <point x="201" y="243" type="curve"/>
      <point x="240" y="286"/>
      <point x="289" y="309"/>
    </contour>
  </outline>
</glyph>
<glyph name="eight" format="2">
  <advance width="640"/>
  <unicode hex="0038"/>
  <note>
Version created Tue Sep 18 15:49:42 2018
</note>
  <outline>
    <contour>
      <point x="320" y="-11" type="curve"/>
      <point x="490" y="-11"/>
      <point x="607" y="74"/>
      <point x="607" y="198" type="curve" smooth="yes"/>
      <point x="607" y="267"/>
      <point x="563" y="326"/>
      <point x="497" y="357" type="curve"/>
      <point x="551" y="391"/>
      <point x="586" y="445"/>
      <point x="586" y="508" type="curve" smooth="yes"/>
      <point x="586" y="624"/>
      <point x="471" y="711"/>
      <point x="319" y="711" type="curve"/>
      <point x="168" y="711"/>
      <point x="54" y="624"/>
      <point x="54" y="508" type="curve" smooth="yes"/>
      <point x="54" y="445"/>
      <point x="89" y="391"/>
      <point x="143" y="357" type="curve"/>
      <point x="77" y="326"/>
      <point x="33" y="267"/>
      <point x="33" y="198" type="curve" smooth="yes"/>
      <point x="33" y="74"/>
      <point x="150" y="-11"/>
    </contour>
    <contour>
      <point x="320" y="415" type="curve"/>
      <point x="259" y="415"/>
      <point x="213" y="451"/>
      <point x="213" y="497" type="curve"/>
      <point x="213" y="544"/>
      <point x="258" y="579"/>
      <point x="320" y="579" type="curve"/>
      <point x="382" y="579"/>
      <point x="427" y="544"/>
      <point x="427" y="497" type="curve"/>
      <point x="427" y="451"/>
      <point x="381" y="415"/>
    </contour>
    <contour>
      <point x="320" y="121" type="curve"/>
      <point x="247" y="121"/>
      <point x="196" y="157"/>
      <point x="196" y="208" type="curve"/>
      <point x="196" y="259"/>
      <point x="247" y="295"/>
      <point x="320" y="295" type="curve"/>
      <point x="393" y="295"/>
      <point x="444" y="259"/>
      <point x="444" y="208" type="curve"/>
      <point x="444" y="157"/>
      <point x="393" y="121"/>
    </contour>
  </outline>
</glyph>
<glyph name="less" format="2">
  <advance width="541"/>
  <unicode hex="003C"/>
  <outline>
    <contour>
      <point x="400" y="43" type="line"/>
      <point x="485" y="138" type="line"/>
      <point x="228" y="349" type="line"/>
      <point x="483" y="559" type="line"/>
      <point x="401" y="652" type="line"/>
      <point x="44" y="347" type="line"/>
    </contour>
  </outline>
</glyph>
<glyph name="at" format="2">
  <advance width="792"/>
  <unicode hex="0040"/>
  <outline>
    <contour>
      <point x="350" y="47" type="curve" smooth="yes"/>
      <point x="387" y="47"/>
      <point x="425" y="61"/>
      <point x="454" y="87" type="curve"/>
      <point x="474" y="60"/>
      <point x="510" y="46"/>
      <point x="560" y="46" type="curve" smooth="yes"/>
      <point x="674" y="46"/>
      <point x="754" y="142"/>
      <point x="754" y="279" type="curve"/>
      <point x="754" y="450"/>
      <point x="605" y="583"/>
      <point x="414" y="583" type="curve"/>
      <point x="199" y="583"/>
      <point x="40" y="423"/>
      <point x="40" y="207" type="curve"/>
      <point x="40" y="4"/>
      <point x="197" y="-144"/>
      <point x="413" y="-144" type="curve"/>
      <point x="479" y="-144"/>
      <point x="539" y="-130"/>
      <point x="603" y="-101" type="curve"/>
      <point x="575" y="-39" type="line"/>
      <point x="527" y="-62"/>
      <point x="473" y="-74"/>
      <point x="412" y="-74" type="curve"/>
      <point x="236" y="-74"/>
      <point x="115" y="43"/>
      <point x="115" y="214" type="curve"/>
      <point x="115" y="387"/>
      <point x="243" y="519"/>
      <point x="411" y="519" type="curve"/>
      <point x="563" y="519"/>
      <point x="677" y="413"/>
      <point x="677" y="272" type="curve"/>
      <point x="677" y="181"/>
      <point x="636" y="119"/>
      <point x="576" y="119" type="curve" smooth="yes"/>
      <point x="545" y="119"/>
      <point x="530" y="136"/>
      <point x="537" y="167" type="curve" smooth="yes"/>
      <point x="581" y="375" type="line"/>
      <point x="478" y="375" type="line"/>
      <point x="474" y="357" type="line"/>
      <point x="450" y="377"/>
      <point x="418" y="388"/>
      <point x="384" y="388" type="curve" smooth="yes"/>
      <point x="283" y="388"/>
      <point x="204" y="307"/>
      <point x="204" y="203" type="curve" smooth="yes"/>
      <point x="204" y="116"/>
      <point x="268" y="47"/>
    </contour>
    <contour>
      <point x="303" y="212" type="curve" smooth="yes"/>
      <point x="303" y="261"/>
      <point x="342" y="301"/>
      <point x="388" y="301" type="curve" smooth="yes"/>
      <point x="418" y="301"/>
      <point x="441" y="290"/>
      <point x="456" y="269" type="curve"/>
      <point x="439" y="182" type="line" smooth="yes"/>
      <point x="437" y="172"/>
      <point x="436" y="163"/>
      <point x="436" y="154" type="curve"/>
      <point x="417" y="138"/>
      <point x="397" y="131"/>
      <point x="375" y="131" type="curve" smooth="yes"/>
      <point x="333" y="131"/>
      <point x="303" y="165"/>
    </contour>
  </outline>
</glyph>
<glyph name="H" format="2">
  <advance width="748"/>
  <unicode hex="0048"/>
  <anchor x="374" y="700" name="top"/>
  <outline>
    <contour>
      <point x="58" y="0" type="line"/>
      <point x="230" y="0" type="line"/>
      <point x="230" y="274" type="line"/>
      <point x="518" y="274" type="line"/>
      <point x="518" y="0" type="line"/>
      <point x="690" y="0" type="line"/>
      <point x="690" y="700" type="line"/>
      <point x="518" y="700" type="line"/>
      <point x="518" y="431" type="line"/>
      <point x="230" y="431" type="line"/>
      <point x="230" y="700" type="line"/>
      <point x="58" y="700" type="line"/>
    </contour>
  </outline>
</glyph>
<glyph name="Y" format="2">
  <advance width="732"/>
  <unicode hex="0059"/>
  <anchor x="366" y="700" name="top"/>
  <outline>
    <contour>
      <point x="280" y="0" type="line"/>
      <point x="452" y="0" type="line"/>
      <point x="452" y="261" type="line"/>
      <point x="742" y="700" type="line"/>
      <point x="555" y="700" type="line"/>
      <point x="371" y="413" type="line"/>
      <point x="188" y="700" type="line"/>
      <point x="-10" y="700" type="line"/>
      <point x="280" y="261" type="line"/>
    </contour>
  </outline>
</glyph>
<glyph name="asciicircum" format="2">
  <advance width="560"/>
  <unicode hex="005E"/>
  <outline>
    <contour>
      <point x="28" y="350" type="line"/>
      <point x="159" y="350" type="line"/>
      <point x="280" y="583" type="line"/>
      <point x="401" y="350" type="line"/>
      <point x="532" y="350" type="line"/>
      <point x="349" y="700" type="line"/>
      <point x="211" y="700" type="line"/>
    </contour>
  </outline>
</glyph>
<glyph name="grave" format="2">
  <advance width="516"/>
  <unicode hex="0060"/>
  <anchor x="300" y="529" name="_top"/>
  <outline>
    <contour>
      <point x="294" y="747" type="line"/>
      <point x="112" y="747" type="line"/>
      <point x="251" y="611" type="line"/>
      <point x="381" y="611" type="line"/>
    </contour>
  </outline>
</glyph>
<glyph name="j" format="2">
  <advance width="262"/>
  <unicode hex="006A"/>
  <outline>
    <contour>
      <point x="131" y="578" type="curve" smooth="yes"/>
      <point x="180" y="578"/>
      <point x="220" y="618"/>
      <point x="220" y="667" type="curve" smooth="yes"/>
      <point x="220" y="716"/>
      <point x="180" y="756"/>
      <point x="131" y="756" type="curve" smooth="yes"/>
      <point x="82" y="756"/>
      <point x="42" y="716"/>
      <point x="42" y="667" type="curve" smooth="yes"/>
      <point x="42" y="618"/>
      <point x="82" y="578"/>
    </contour>
    <contour>
      <point x="27" y="-218" type="curve"/>
      <point x="145" y="-218"/>
      <point x="212" y="-157"/>
      <point x="212" y="-51" type="curve" smooth="yes"/>
      <point x="212" y="529" type="line"/>
      <point x="50" y="529" type="line"/>
      <point x="50" y="-42" type="line" smooth="yes"/>
      <point x="50" y="-75"/>
      <point x="32" y="-90"/>
      <point x="-7" y="-90" type="curve"/>
      <point x="-26" y="-90"/>
      <point x="-39" y="-89"/>
      <point x="-54" y="-86" type="curve"/>
      <point x="-54" y="-208" type="line"/>
      <point x="-36" y="-214"/>
      <point x="-1" y="-218"/>
    </contour>
  </outline>
</glyph>
<glyph name="n" format="2">
  <advance width="611"/>
  <unicode hex="006E"/>
  <anchor x="308" y="529" name="top"/>
  <anchor x="308" y="0" name="bottom"/>
  <outline>
    <contour>
      <point x="50" y="0" type="line"/>
      <point x="212" y="0" type="line"/>
      <point x="212" y="358" type="line"/>
      <point x="234" y="385"/>
      <point x="266" y="400"/>
      <point x="307" y="400" type="curve" smooth="yes"/>
      <point x="365" y="400"/>
      <point x="403" y="362"/>
      <point x="403" y="304" type="curve"/>
      <point x="403" y="0" type="line"/>
      <point x="565" y="0" type="line"/>
      <point x="565" y="326" type="line" smooth="yes"/>
      <point x="565" y="451"/>
      <point x="478" y="539"/>
      <point x="354" y="539" type="curve"/>
      <point x="300" y="539"/>
      <point x="251" y="523"/>
      <point x="212" y="493" type="curve"/>
      <point x="212" y="529" type="line"/>
      <point x="50" y="529" type="line"/>
    </contour>
  </outline>
</glyph>
<glyph name="bar" format="2">
  <advance width="344"/>
  <unicode hex="007C"/>
  <outline>
    <contour>
      <point x="97" y="-214" type="line"/>
      <point x="248" y="-214" type="line"/>
      <point x="248" y="700" type="line"/>
      <point x="97" y="700" type="line"/>
    </contour>
  </outline>
</glyph>
<glyph name="asciitilde" format="2">
  <advance width="618"/>
  <unicode hex="007E"/>
  <outline>
    <contour>
      <point x="273" y="448" type="line" smooth="yes"/>
      <point x="243" y="463"/>
      <point x="208" y="471"/>
      <point x="176" y="471" type="curve" smooth="yes"/>
      <point x="91" y="471"/>
      <point x="36" y="407"/>
      <point x="22" y="291" type="curve"/>
      <point x="133" y="279" type="line"/>
      <point x="139" y="329"/>
      <point x="159" y="353"/>
      <point x="194" y="353" type="curve" smooth="yes"/>
      <point x="208" y="353"/>
      <point x="224" y="348"/>
      <point x="253" y="335" type="curve" smooth="yes"/>
      <point x="345" y="292" type="line" smooth="yes"/>
      <point x="375" y="277"/>
      <point x="410" y="269"/>
      <point x="442" y="269" type="curve" smooth="yes"/>
      <point x="527" y="269"/>
      <point x="582" y="333"/>
      <point x="596" y="449" type="curve"/>
      <point x="485" y="461" type="line"/>
      <point x="479" y="411"/>
      <point x="459" y="387"/>
      <point x="424" y="387" type="curve" smooth="yes"/>
      <point x="410" y="387"/>
      <point x="394" y="392"/>
      <point x="365" y="405" type="curve" smooth="yes"/>
    </contour>
  </outline>
</glyph>
<glyph name="yen" format="2">
  <advance width="738"/>
  <unicode hex="00A5"/>
  <outline>
    <contour>
      <point x="111" y="216" type="line"/>
      <point x="111" y="135" type="line"/>
      <point x="280" y="135" type="line"/>
      <point x="280" y="0" type="line"/>
      <point x="452" y="0" type="line"/>
      <point x="452" y="135" type="line"/>
      <point x="627" y="135" type="line"/>
      <point x="627" y="216" type="line"/>
      <point x="452" y="216" type="line"/>
      <point x="452" y="261" type="line"/>
      <point x="457" y="269" type="line"/>
      <point x="627" y="269" type="line"/>
      <point x="627" y="350" type="line"/>
      <point x="511" y="350" type="line"/>
      <point x="742" y="700" type="line"/>
      <point x="555" y="700" type="line"/>
      <point x="371" y="413" type="line"/>
      <point x="188" y="700" type="line"/>
      <point x="-10" y="700" type="line"/>
      <point x="221" y="350" type="line"/>
      <point x="111" y="350" type="line"/>
      <point x="111" y="269" type="line"/>
      <point x="275" y="269" type="line"/>
      <point x="280" y="261" type="line"/>
      <point x="280" y="216" type="line"/>
    </contour>
  </outline>
</glyph>
<glyph name="uni00A6" format="2">
  <advance width="344"/>
  <unicode hex="00A6"/>
  <guideline x="172" y="243" angle="90.0" identifier="XTyy9EqEPV"/>
  <guideline x="172" y="243" angle="0" identifier="LLOqWJEsWZ"/>
  <outline>
    <contour>
      <point x="248" y="283" type="line"/>
      <point x="248" y="700" type="line"/>
      <point x="97" y="700" type="line"/>
      <point x="97" y="283" type="line"/>
    </contour>
    <contour>
      <point x="97" y="-214" type="line"/>
      <point x="248" y="-214" type="line"/>
      <point x="248" y="203" type="line"/>
      <point x="97" y="203" type="line"/>
    </contour>
  </outline>
</glyph>
<glyph name="dieresis" format="2">
  <advance width="608"/>
  <unicode hex="00A8"/>
  <anchor x="304" y="529" name="_top"/>
  <outline>
    <contour>
      <point x="186" y="602" type="curve" smooth="yes"/>
      <point x="234" y="602"/>
      <point x="271" y="638"/>
      <point x="271" y="684" type="curve" smooth="yes"/>
      <point x="271" y="731"/>
      <point x="235" y="766"/>
      <point x="186" y="766" type="curve" smooth="yes"/>
      <point x="137" y="766"/>
      <point x="101" y="731"/>
      <point x="101" y="684" type="curve" smooth="yes"/>
      <point x="101" y="638"/>
      <point x="138" y="602"/>
    </contour>
    <contour>
      <point x="422" y="602" type="curve" smooth="yes"/>
      <point x="470" y="602"/>
      <point x="507" y="638"/>
      <point x="507" y="684" type="curve" smooth="yes"/>
      <point x="507" y="731"/>
      <point x="471" y="766"/>
      <point x="422" y="766" type="curve" smooth="yes"/>
      <point x="373" y="766"/>
      <point x="337" y="731"/>
      <point x="337" y="684" type="curve" smooth="yes"/>
      <point x="337" y="638"/>
      <point x="374" y="602"/>
    </contour>
  </outline>
</glyph>
<glyph name="ordfeminine" format="2">
  <advance width="450"/>
  <unicode hex="00AA"/>
  <outline>
    <contour>
      <point x="172" y="295" type="curve" smooth="yes"/>
      <point x="214" y="295"/>
      <point x="248" y="304"/>
      <point x="280" y="325" type="curve"/>
      <point x="280" y="302" type="line"/>
      <point x="405" y="302" type="line"/>
      <point x="405" y="556" type="line"/>
      <point x="405" y="652"/>
      <point x="341" y="708"/>
      <point x="229" y="708" type="curve" smooth="yes"/>
      <point x="168" y="708"/>
      <point x="107" y="693"/>
      <point x="41" y="664" type="curve"/>
      <point x="86" y="571" type="line"/>
      <point x="139" y="592"/>
      <point x="176" y="602"/>
      <point x="206" y="602" type="curve" smooth="yes"/>
      <point x="256" y="602"/>
      <point x="280" y="583"/>
      <point x="280" y="545" type="curve"/>
      <point x="280" y="528" type="line"/>
      <point x="251" y="534"/>
      <point x="222" y="538"/>
      <point x="192" y="538" type="curve" smooth="yes"/>
      <point x="87" y="538"/>
      <point x="27" y="494"/>
      <point x="27" y="419" type="curve" smooth="yes"/>
      <point x="27" y="346"/>
      <point x="86" y="295"/>
    </contour>
    <contour>
      <point x="148" y="421" type="curve" smooth="yes"/>
      <point x="148" y="444"/>
      <point x="170" y="457"/>
      <point x="211" y="457" type="curve" smooth="yes"/>
      <point x="234" y="457"/>
      <point x="257" y="455"/>
      <point x="280" y="449" type="curve"/>
      <point x="280" y="401" type="line"/>
      <point x="260" y="390"/>
      <point x="235" y="384"/>
      <point x="207" y="384" type="curve"/>
      <point x="170" y="384"/>
      <point x="148" y="398"/>
    </contour>
  </outline>
</glyph>
<glyph name="uni00AC" format="2">
  <advance width="563"/>
  <unicode hex="00AC"/>
  <outline>
    <contour>
      <point x="38" y="354" type="line"/>
      <point x="38" y="219" type="line"/>
      <point x="363" y="219" type="line"/>
      <point x="363" y="0" type="line"/>
      <point x="525" y="0" type="line"/>
      <point x="525" y="354" type="line"/>
    </contour>
  </outline>
</glyph>
<glyph name="macron" format="2">
  <advance width="516"/>
  <unicode hex="00AF"/>
  <anchor x="258" y="529" name="_top"/>
  <outline>
    <contour>
      <point x="429" y="728" type="line"/>
      <point x="94" y="728" type="line"/>
      <point x="94" y="624" type="line"/>
      <point x="429" y="624" type="line"/>
    </contour>
  </outline>
</glyph>
<glyph name="degree" format="2">
  <advance width="370"/>
  <unicode hex="00B0"/>
  <outline>
    <contour>
      <point x="185" y="416" type="curve" smooth="yes"/>
      <point x="266" y="416"/>
      <point x="331" y="483"/>
      <point x="331" y="565" type="curve" smooth="yes"/>
      <point x="331" y="645"/>
      <point x="266" y="710"/>
      <point x="185" y="710" type="curve" smooth="yes"/>
      <point x="103" y="710"/>
      <point x="38" y="645"/>
      <point x="38" y="565" type="curve" smooth="yes"/>
      <point x="38" y="482"/>
      <point x="103" y="416"/>
    </contour>
    <contour>
      <point x="185" y="499" type="curve" smooth="yes"/>
      <point x="150" y="499"/>
      <point x="122" y="529"/>
      <point x="122" y="565" type="curve"/>
      <point x="122" y="599"/>
      <point x="150" y="627"/>
      <point x="185" y="627" type="curve" smooth="yes"/>
      <point x="219" y="627"/>
      <point x="247" y="599"/>
      <point x="247" y="565" type="curve" smooth="yes"/>
      <point x="247" y="528"/>
      <point x="219" y="499"/>
    </contour>
  </outline>
</glyph>
<glyph name="plusminus" format="2">
  <advance width="560"/>
  <unicode hex="00B1"/>
  <outline>
    <contour>
      <point x="343" y="209" type="line"/>
      <point x="343" y="359" type="line"/>
      <point x="517" y="359" type="line"/>
      <point x="517" y="482" type="line"/>
      <point x="343" y="482" type="line"/>
      <point x="343" y="629" type="line"/>
      <point x="218" y="629" type="line"/>
      <point x="218" y="482" type="line"/>
      <point x="43" y="482" type="line"/>
      <point x="43" y="359" type="line"/>
      <point x="218" y="359" type="line"/>
      <point x="218" y="209" type="line"/>
    </contour>
    <contour>
      <point x="517" y="123" type="line"/>
      <point x="43" y="123" type="line"/>
      <point x="43" y="-1" type="line"/>
      <point x="517" y="-1" type="line"/>
    </contour>
  </outline>
</glyph>
<glyph name="acute" format="2">
  <advance width="516"/>
  <unicode hex="00B4"/>
  <anchor x="225" y="529" name="_top"/>
  <outline>
    <contour>
      <point x="237" y="747" type="line"/>
      <point x="149" y="611" type="line"/>
      <point x="278" y="611" type="line"/>
      <point x="418" y="747" type="line"/>
    </contour>
  </outline>
</glyph>
<glyph name="uni00B5" format="2">
  <advance width="611"/>
  <unicode hex="00B5"/>
  <outline>
    <contour>
      <point x="208" y="529" type="line"/>
      <point x="46" y="529" type="line"/>
      <point x="46" y="-211" type="line"/>
      <point x="208" y="-211" type="line"/>
      <point x="208" y="-5" type="line"/>
      <point x="224" y="-8"/>
      <point x="240" y="-10"/>
      <point x="257" y="-10" type="curve"/>
      <point x="311" y="-10"/>
      <point x="360" y="6"/>
      <point x="399" y="36" type="curve"/>
      <point x="399" y="0" type="line"/>
      <point x="561" y="0" type="line"/>
      <point x="561" y="529" type="line"/>
      <point x="399" y="529" type="line"/>
      <point x="399" y="171" type="line"/>
      <point x="377" y="144"/>
      <point x="345" y="129"/>
      <point x="304" y="129" type="curve" smooth="yes"/>
      <point x="246" y="129"/>
      <point x="208" y="167"/>
      <point x="208" y="225" type="curve"/>
    </contour>
  </outline>
</glyph>
<glyph name="cedilla" format="2">
  <advance width="516"/>
  <unicode hex="00B8"/>
  <anchor x="290" y="0" name="_bottom"/>
  <outline>
    <contour>
      <point x="407" y="-134" type="curve"/>
      <point x="407" y="-83"/>
      <point x="371" y="-48"/>
      <point x="312" y="-42" type="curve"/>
      <point x="325" y="0" type="line"/>
      <point x="249" y="0" type="line"/>
      <point x="220" y="-99" type="line"/>
      <point x="267" y="-99" type="line" smooth="yes"/>
      <point x="297" y="-99"/>
      <point x="316" y="-112"/>
      <point x="316" y="-132" type="curve"/>
      <point x="316" y="-154"/>
      <point x="298" y="-166"/>
      <point x="265" y="-166" type="curve"/>
      <point x="239" y="-166"/>
      <point x="213" y="-156"/>
      <point x="189" y="-138" type="curve"/>
      <point x="138" y="-192" type="line"/>
      <point x="174" y="-224"/>
      <point x="216" y="-239"/>
      <point x="268" y="-239" type="curve"/>
      <point x="347" y="-239"/>
      <point x="407" y="-193"/>
    </contour>
  </outline>
</glyph>
<glyph name="ordmasculine" format="2">
  <advance width="490"/>
  <unicode hex="00BA"/>
  <outline>
    <contour>
      <point x="26" y="500" type="curve" smooth="yes"/>
      <point x="26" y="385"/>
      <point x="121" y="294"/>
      <point x="243" y="294" type="curve" smooth="yes"/>
      <point x="365" y="294"/>
      <point x="460" y="385"/>
      <point x="460" y="500" type="curve" smooth="yes"/>
      <point x="460" y="617"/>
      <point x="365" y="708"/>
      <point x="243" y="708" type="curve" smooth="yes"/>
      <point x="122" y="708"/>
      <point x="26" y="617"/>
    </contour>
    <contour>
      <point x="337" y="500" type="curve" smooth="yes"/>
      <point x="337" y="446"/>
      <point x="296" y="404"/>
      <point x="243" y="404" type="curve" smooth="yes"/>
      <point x="191" y="404"/>
      <point x="150" y="446"/>
      <point x="150" y="500" type="curve" smooth="yes"/>
      <point x="150" y="555"/>
      <point x="191" y="598"/>
      <point x="243" y="598" type="curve" smooth="yes"/>
      <point x="296" y="598"/>
      <point x="337" y="555"/>
    </contour>
  </outline>
</glyph>
<glyph name="AE" format="2">
  <advance width="994"/>
  <unicode hex="00C6"/>
  <outline>
    <contour>
      <point x="-7" y="0" type="line"/>
      <point x="172" y="0" type="line"/>
      <point x="237" y="169" type="line"/>
      <point x="510" y="169" type="line"/>
      <point x="574" y="0" type="line"/>
      <point x="951" y="0" type="line"/>
      <point x="951" y="149" type="line"/>
      <point x="693" y="149" type="line"/>
      <point x="642" y="281" type="line"/>
      <point x="828" y="281" type="line"/>
      <point x="828" y="425" type="line"/>
      <point x="587" y="425" type="line"/>
      <point x="539" y="551" type="line"/>
      <point x="951" y="551" type="line"/>
      <point x="951" y="700" type="line"/>
      <point x="280" y="700" type="line"/>
    </contour>
    <contour>
      <point x="289" y="306" type="line"/>
      <point x="375" y="530" type="line"/>
      <point x="459" y="306" type="line"/>
    </contour>
  </outline>
</glyph>
<glyph name="multiply" format="2">
  <advance width="541"/>
  <unicode hex="00D7"/>
  <outline>
    <contour>
      <point x="122" y="133" type="line"/>
      <point x="270" y="282" type="line"/>
      <point x="418" y="132" type="line"/>
      <point x="495" y="209" type="line"/>
      <point x="346" y="360" type="line"/>
      <point x="494" y="510" type="line"/>
      <point x="419" y="585" type="line"/>
      <point x="271" y="436" type="line"/>
      <point x="123" y="586" type="line"/>
      <point x="46" y="509" type="line"/>
      <point x="195" y="358" type="line"/>
      <point x="47" y="208" type="line"/>
    </contour>
  </outline>
</glyph>
<glyph name="hcircumflex" format="2">
  <advance width="611"/>
  <unicode hex="0125"/>
  <outline>
    <contour>
      <point x="199" y="780" type="line"/>
      <point x="332" y="780" type="line"/>
      <point x="213" y="921" type="line"/>
      <point x="49" y="921" type="line"/>
      <point x="-70" y="780" type="line"/>
      <point x="59" y="780" type="line"/>
      <point x="129" y="851" type="line"/>
    </contour>
    <contour>
      <point x="50" y="0" type="line"/>
      <point x="212" y="0" type="line"/>
      <point x="212" y="358" type="line"/>
      <point x="234" y="385"/>
      <point x="266" y="400"/>
      <point x="307" y="400" type="curve" smooth="yes"/>
      <point x="365" y="400"/>
      <point x="403" y="362"/>
      <point x="403" y="304" type="curve"/>
      <point x="403" y="0" type="line"/>
      <point x="565" y="0" type="line"/>
      <point x="565" y="326" type="line" smooth="yes"/>
      <point x="565" y="451"/>
      <point x="478" y="539"/>
      <point x="354" y="539" type="curve"/>
      <point x="300" y="539"/>
      <point x="251" y="523"/>
      <point x="212" y="493" type="curve"/>
      <point x="212" y="700" type="line"/>
      <point x="50" y="700" type="line"/>
    </contour>
  </outline>
</glyph>
<glyph name="lacute" format="2">
  <advance width="262"/>
  <unicode hex="013A"/>
  <outline>
    <contour>
      <point x="143" y="918" type="line"/>
      <point x="55" y="782" type="line"/>
      <point x="184" y="782" type="line"/>
      <point x="324" y="918" type="line"/>
    </contour>
    <contour>
      <point x="50" y="0" type="line"/>
      <point x="212" y="0" type="line"/>
      <point x="212" y="700" type="line"/>
      <point x="50" y="700" type="line"/>
    </contour>
  </outline>
</glyph>
<glyph name="Lslash" format="2">
  <advance width="662"/>
  <unicode hex="0141"/>
  <outline>
    <contour>
      <point x="88" y="0" type="line"/>
      <point x="629" y="0" type="line"/>
      <point x="629" y="152" type="line"/>
      <point x="260" y="152" type="line"/>
      <point x="260" y="301" type="line"/>
      <point x="428" y="401" type="line"/>
      <point x="428" y="543" type="line"/>
      <point x="260" y="443" type="line"/>
      <point x="260" y="700" type="line"/>
      <point x="88" y="700" type="line"/>
      <point x="88" y="342" type="line"/>
      <point x="11" y="296" type="line"/>
      <point x="11" y="154" type="line"/>
      <point x="88" y="200" type="line"/>
    </contour>
  </outline>
</glyph>
<glyph name="Eng" format="2">
  <advance width="758"/>
  <unicode hex="014A"/>
  <outline>
    <contour>
      <point x="538" y="6" type="line"/>
      <point x="538" y="-42" type="line"/>
      <point x="538" y="-75"/>
      <point x="520" y="-90"/>
      <point x="482" y="-90" type="curve"/>
      <point x="462" y="-90"/>
      <point x="450" y="-89"/>
      <point x="434" y="-86" type="curve"/>
      <point x="434" y="-208" type="line"/>
      <point x="452" y="-214"/>
      <point x="488" y="-218"/>
      <point x="516" y="-218" type="curve"/>
      <point x="633" y="-218"/>
      <point x="700" y="-158"/>
      <point x="700" y="-52" type="curve"/>
      <point x="700" y="700" type="line"/>
      <point x="538" y="700" type="line"/>
      <point x="538" y="288" type="line"/>
      <point x="215" y="700" type="line"/>
      <point x="58" y="700" type="line"/>
      <point x="58" y="0" type="line"/>
      <point x="220" y="0" type="line"/>
      <point x="220" y="416" type="line"/>
    </contour>
  </outline>
</glyph>
<glyph name="tcedilla" format="2">
  <advance width="448"/>
  <unicode hex="0163"/>
  <outline>
    <contour>
      <point x="125" y="161" type="line"/>
      <point x="125" y="71"/>
      <point x="168" y="16"/>
      <point x="252" y="-1" type="curve"/>
      <point x="223" y="-99" type="line"/>
      <point x="270" y="-99" type="line" smooth="yes"/>
      <point x="300" y="-99"/>
      <point x="319" y="-112"/>
      <point x="319" y="-132" type="curve"/>
      <point x="319" y="-154"/>
      <point x="301" y="-166"/>
      <point x="268" y="-166" type="curve"/>
      <point x="242" y="-166"/>
      <point x="216" y="-156"/>
      <point x="192" y="-138" type="curve"/>
      <point x="141" y="-192" type="line"/>
      <point x="177" y="-224"/>
      <point x="219" y="-239"/>
      <point x="271" y="-239" type="curve"/>
      <point x="350" y="-239"/>
      <point x="410" y="-193"/>
      <point x="410" y="-134" type="curve"/>
      <point x="410" y="-83"/>
      <point x="374" y="-48"/>
      <point x="315" y="-42" type="curve"/>
      <point x="326" y="-7" type="line"/>
      <point x="357" y="-6"/>
      <point x="403" y="1"/>
      <point x="430" y="9" type="curve"/>
      <point x="430" y="140" type="line"/>
      <point x="403" y="132"/>
      <point x="383" y="129"/>
      <point x="357" y="129" type="curve"/>
      <point x="305" y="129"/>
      <point x="287" y="146"/>
      <point x="287" y="193" type="curve" smooth="yes"/>
      <point x="287" y="394" type="line"/>
      <point x="435" y="394" type="line"/>
      <point x="435" y="529" type="line"/>
      <point x="287" y="529" type="line"/>
      <point x="287" y="700" type="line"/>
      <point x="125" y="665" type="line"/>
      <point x="125" y="529" type="line"/>
      <point x="18" y="529" type="line"/>
      <point x="18" y="394" type="line"/>
      <point x="125" y="394" type="line"/>
    </contour>
  </outline>
</glyph>
<glyph name="Uogonek" format="2">
  <advance width="733"/>
  <unicode hex="0172"/>
  <outline>
    <contour>
      <point x="685" y="305" type="curve"/>
      <point x="685" y="700" type="line"/>
      <point x="513" y="700" type="line"/>
      <point x="513" y="305" type="line"/>
      <point x="513" y="210"/>
      <point x="456" y="149"/>
      <point x="367" y="149" type="curve" smooth="yes"/>
      <point x="278" y="149"/>
      <point x="220" y="210"/>
      <point x="220" y="305" type="curve"/>
      <point x="220" y="700" type="line"/>
      <point x="48" y="700" type="line"/>
      <point x="48" y="305" type="line"/>
      <point x="48" y="118"/>
      <point x="164" y="-2"/>
      <point x="348" y="-10" type="curve"/>
      <point x="298" y="-45"/>
      <point x="275" y="-82"/>
      <point x="275" y="-127" type="curve"/>
      <point x="275" y="-183"/>
      <point x="318" y="-221"/>
      <point x="383" y="-221" type="curve"/>
      <point x="415" y="-221"/>
      <point x="447" y="-212"/>
      <point x="470" y="-198" type="curve"/>
      <point x="449" y="-128" type="line"/>
      <point x="439" y="-135"/>
      <point x="425" y="-139"/>
      <point x="413" y="-139" type="curve"/>
      <point x="384" y="-139"/>
      <point x="366" y="-124"/>
      <point x="366" y="-98" type="curve"/>
      <point x="366" y="-65"/>
      <point x="391" y="-34"/>
      <point x="446" y="-2" type="curve"/>
      <point x="593" y="28"/>
      <point x="685" y="142"/>
    </contour>
  </outline>
</glyph>
<glyph name="dotlessj" format="2">
  <advance width="262"/>
  <unicode hex="0237"/>
  <anchor x="131" y="529" name="top"/>
  <outline>
    <contour>
      <point x="-54" y="-208" type="line"/>
      <point x="-36" y="-214"/>
      <point x="0" y="-218"/>
      <point x="28" y="-218" type="curve"/>
      <point x="145" y="-218"/>
      <point x="212" y="-158"/>
      <point x="212" y="-52" type="curve" smooth="yes"/>
      <point x="212" y="529" type="line"/>
      <point x="50" y="529" type="line"/>
      <point x="50" y="-42" type="line" smooth="yes"/>
      <point x="50" y="-75"/>
      <point x="32" y="-90"/>
      <point x="-6" y="-90" type="curve"/>
      <point x="-25" y="-90"/>
      <point x="-38" y="-89"/>
      <point x="-54" y="-86" type="curve"/>
    </contour>
  </outline>
</glyph>
<glyph name="circumflex" format="2">
  <advance width="516"/>
  <unicode hex="02C6"/>
  <anchor x="258" y="529" name="_top"/>
  <outline>
    <contour>
      <point x="327" y="609" type="line"/>
      <point x="460" y="609" type="line"/>
      <point x="341" y="750" type="line"/>
      <point x="177" y="750" type="line"/>
      <point x="58" y="609" type="line"/>
      <point x="187" y="609" type="line"/>
      <point x="257" y="680" type="line"/>
    </contour>
  </outline>
</glyph>
<glyph name="caron" format="2">
  <advance width="516"/>
  <unicode hex="02C7"/>
  <anchor x="260" y="529" name="_top"/>
  <outline>
    <contour>
      <point x="191" y="750" type="line"/>
      <point x="58" y="750" type="line"/>
      <point x="177" y="609" type="line"/>
      <point x="341" y="609" type="line"/>
      <point x="460" y="750" type="line"/>
      <point x="331" y="750" type="line"/>
      <point x="261" y="679" type="line"/>
    </contour>
  </outline>
</glyph>
<glyph name="dotaccent" format="2">
  <advance width="299"/>
  <unicode hex="02D9"/>
  <anchor x="150" y="529" name="_top"/>
  <outline>
    <contour>
      <point x="150" y="602" type="curve" smooth="yes"/>
      <point x="198" y="602"/>
      <point x="235" y="638"/>
      <point x="235" y="684" type="curve" smooth="yes"/>
      <point x="235" y="731"/>
      <point x="199" y="766"/>
      <point x="150" y="766" type="curve" smooth="yes"/>
      <point x="101" y="766"/>
      <point x="65" y="731"/>
      <point x="65" y="684" type="curve" smooth="yes"/>
      <point x="65" y="638"/>
      <point x="102" y="602"/>
    </contour>
  </outline>
</glyph>
<glyph name="ring" format="2">
  <advance width="516"/>
  <unicode hex="02DA"/>
  <anchor x="258" y="529" name="_top"/>
  <outline>
    <contour>
      <point x="258" y="585" type="curve" smooth="yes"/>
      <point x="329" y="585"/>
      <point x="386" y="641"/>
      <point x="386" y="712" type="curve" smooth="yes"/>
      <point x="386" y="781"/>
      <point x="329" y="836"/>
      <point x="258" y="836" type="curve" smooth="yes"/>
      <point x="186" y="836"/>
      <point x="130" y="781"/>
      <point x="130" y="712" type="curve" smooth="yes"/>
      <point x="130" y="641"/>
      <point x="186" y="585"/>
    </contour>
    <contour>
      <point x="258" y="651" type="curve" smooth="yes"/>
      <point x="225" y="651"/>
      <point x="200" y="677"/>
      <point x="200" y="712" type="curve"/>
      <point x="200" y="744"/>
      <point x="226" y="770"/>
      <point x="258" y="770" type="curve" smooth="yes"/>
      <point x="290" y="770"/>
      <point x="316" y="744"/>
      <point x="316" y="712" type="curve" smooth="yes"/>
      <point x="316" y="678"/>
      <point x="291" y="651"/>
    </contour>
  </outline>
</glyph>
<glyph name="tilde" format="2">
  <advance width="516"/>
  <unicode hex="02DC"/>
  <anchor x="258" y="529" name="_top"/>
  <outline>
    <contour>
      <point x="153" y="598" type="line"/>
      <point x="161" y="635"/>
      <point x="173" y="650"/>
      <point x="194" y="650" type="curve"/>
      <point x="232" y="650"/>
      <point x="287" y="602"/>
      <point x="342" y="602" type="curve" smooth="yes"/>
      <point x="405" y="602"/>
      <point x="445" y="644"/>
      <point x="463" y="732" type="curve"/>
      <point x="368" y="753" type="line"/>
      <point x="358" y="714"/>
      <point x="347" y="701"/>
      <point x="325" y="701" type="curve"/>
      <point x="289" y="701"/>
      <point x="234" y="749"/>
      <point x="178" y="749" type="curve" smooth="yes"/>
      <point x="115" y="749"/>
      <point x="75" y="707"/>
      <point x="56" y="619" type="curve"/>
    </contour>
  </outline>
</glyph>
<glyph name="uni2215" format="2">
  <advance width="577"/>
  <unicode hex="2215"/>
  <outline>
    <contour>
      <point x="131" y="0" type="line"/>
      <point x="529" y="700" type="line"/>
      <point x="410" y="700" type="line"/>
      <point x="13" y="0" type="line"/>
    </contour>
  </outline>
</glyph>
<glyph name="notequal" format="2">
  <advance width="555"/>
  <unicode hex="2260"/>
  <outline>
    <contour>
      <point x="35" y="91" type="line"/>
      <point x="171" y="91" type="line"/>
      <point x="237" y="189" type="line"/>
      <point x="517" y="189" type="line"/>
      <point x="517" y="313" type="line"/>
      <point x="320" y="313" type="line"/>
      <point x="372" y="391" type="line"/>
      <point x="517" y="391" type="line"/>
      <point x="517" y="515" type="line"/>
      <point x="456" y="515" type="line"/>
      <point x="520" y="611" type="line"/>
      <point x="385" y="611" type="line"/>
      <point x="320" y="515" type="line"/>
      <point x="43" y="515" type="line"/>
      <point x="43" y="391" type="line"/>
      <point x="237" y="391" type="line"/>
      <point x="184" y="313" type="line"/>
      <point x="43" y="313" type="line"/>
      <point x="43" y="189" type="line"/>
      <point x="101" y="189" type="line"/>
    </contour>
  </outline>
</glyph>
<glyph name="g.alt" format="2">
  <advance width="627"/>
  <note>
Version created Sun Jan 13 16:53:00 2019
</note>
  <anchor x="298" y="529" name="top"/>
  <outline>
    <contour>
      <point x="53" y="339" type="curve" smooth="yes"/>
      <point x="53" y="270"/>
      <point x="94" y="211"/>
      <point x="159" y="176" type="curve"/>
      <point x="111" y="156"/>
      <point x="82" y="120"/>
      <point x="82" y="74" type="curve"/>
      <point x="82" y="44"/>
      <point x="93" y="19"/>
      <point x="115" y="0" type="curve"/>
      <point x="56" y="-17"/>
      <point x="17" y="-53"/>
      <point x="17" y="-96" type="curve" smooth="yes"/>
      <point x="17" y="-177"/>
      <point x="110" y="-219"/>
      <point x="288" y="-219" type="curve" smooth="yes"/>
      <point x="489" y="-219"/>
      <point x="617" y="-149"/>
      <point x="617" y="-38" type="curve" smooth="yes"/>
      <point x="617" y="39"/>
      <point x="552" y="87"/>
      <point x="445" y="89" type="curve" smooth="yes"/>
      <point x="273" y="92" type="line" smooth="yes"/>
      <point x="237" y="93"/>
      <point x="220" y="103"/>
      <point x="220" y="122" type="curve" smooth="yes"/>
      <point x="220" y="134"/>
      <point x="229" y="143"/>
      <point x="245" y="148" type="curve"/>
      <point x="262" y="145"/>
      <point x="280" y="144"/>
      <point x="298" y="144" type="curve" smooth="yes"/>
      <point x="439" y="144"/>
      <point x="543" y="227"/>
      <point x="543" y="339" type="curve" smooth="yes"/>
      <point x="543" y="375"/>
      <point x="532" y="408"/>
      <point x="513" y="437" type="curve"/>
      <point x="535" y="444"/>
      <point x="558" y="447"/>
      <point x="583" y="447" type="curve" smooth="yes"/>
      <point x="598" y="447"/>
      <point x="614" y="446"/>
      <point x="623" y="444" type="curve"/>
      <point x="621" y="562" type="line"/>
      <point x="612" y="566"/>
      <point x="600" y="568"/>
      <point x="585" y="568" type="curve" smooth="yes"/>
      <point x="535" y="568"/>
      <point x="492" y="543"/>
      <point x="457" y="493" type="curve"/>
      <point x="414" y="522"/>
      <point x="359" y="539"/>
      <point x="298" y="539" type="curve" smooth="yes"/>
      <point x="160" y="539"/>
      <point x="53" y="451"/>
    </contour>
    <contour>
      <point x="392" y="339" type="curve" smooth="yes"/>
      <point x="392" y="292"/>
      <point x="351" y="256"/>
      <point x="298" y="256" type="curve" smooth="yes"/>
      <point x="244" y="256"/>
      <point x="204" y="291"/>
      <point x="204" y="339" type="curve" smooth="yes"/>
      <point x="204" y="386"/>
      <point x="244" y="421"/>
      <point x="298" y="421" type="curve" smooth="yes"/>
      <point x="351" y="421"/>
      <point x="392" y="385"/>
    </contour>
    <contour>
      <point x="162" y="-75" type="curve"/>
      <point x="162" y="-57"/>
      <point x="178" y="-44"/>
      <point x="203" y="-38" type="curve"/>
      <point x="225" y="-42"/>
      <point x="249" y="-45"/>
      <point x="276" y="-45" type="curve" smooth="yes"/>
      <point x="420" y="-47" type="line" smooth="yes"/>
      <point x="443" y="-47"/>
      <point x="455" y="-56"/>
      <point x="455" y="-71" type="curve" smooth="yes"/>
      <point x="455" y="-102"/>
      <point x="392" y="-121"/>
      <point x="288" y="-121" type="curve" smooth="yes"/>
      <point x="201" y="-121"/>
      <point x="162" y="-107"/>
    </contour>
  </outline>
</glyph>
<glyph name="reversequotedblleft" format="2">
  <advance width="472"/>
  <outline>
    <contour>
      <point x="176" y="750" type="line"/>
      <point x="9" y="750" type="line"/>
      <point x="128" y="466" type="line"/>
      <point x="249" y="466" type="line"/>
    </contour>
    <contour>
      <point x="390" y="750" type="line"/>
      <point x="223" y="750" type="line"/>
      <point x="342" y="466" type="line"/>
      <point x="463" y="466" type="line"/>
    </contour>
  </outline>
</glyph>
